<?xml version="1.0" standalone="no"?>
<!DOCTYPE svg PUBLIC "-//W3C//DTD SVG 1.1//EN" 
  "http://www.w3.org/Graphics/SVG/1.1/DTD/svg11.dtd">
<svg width="30cm" height="40cm" viewBox="0 0 3000 4000"
     xmlns="http://www.w3.org/2000/svg" version="1.1">
  <desc>Example circle01 - circle filled with red and stroked with blue</desc>
  
  null<rect x="0" y="0" width="61" height="102" style="fill:none;stroke:black;stroke-width:5" /><circle cx="15" cy="20" r="6" stroke="black" stroke-width="1" fill="black" /> <circle cx="46" cy="51" r="6" stroke="black" stroke-width="1" fill="black" /> <circle cx="15" cy="51" r="6" stroke="black" stroke-width="1" fill="black" /> <circle cx="46" cy="20" r="6" stroke="black" stroke-width="1" fill="black" /> <circle cx="15" cy="82" r="6" stroke="black" stroke-width="1" fill="black" /> <rect x="67" y="0" width="61" height="102" style="fill:none;stroke:black;stroke-width:5" /><circle cx="113" cy="20" r="6" stroke="black" stroke-width="1" fill="black" /> <circle cx="82" cy="51" r="6" stroke="black" stroke-width="1" fill="black" /> <circle cx="113" cy="51" r="6" stroke="black" stroke-width="1" fill="black" /> <circle cx="113" cy="82" r="6" stroke="black" stroke-width="1" fill="black" /> <rect x="134" y="0" width="61" height="102" style="fill:none;stroke:black;stroke-width:5" /><circle cx="149" cy="20" r="6" stroke="black" stroke-width="1" fill="black" /> <circle cx="180" cy="51" r="6" stroke="black" stroke-width="1" fill="black" /> <rect x="201" y="0" width="61" height="102" style="fill:none;stroke:black;stroke-width:5" /><circle cx="216" cy="20" r="6" stroke="black" stroke-width="1" fill="black" /> <circle cx="216" cy="51" r="6" stroke="black" stroke-width="1" fill="black" /> <circle cx="247" cy="51" r="6" stroke="black" stroke-width="1" fill="black" /> <circle cx="216" cy="82" r="6" stroke="black" stroke-width="1" fill="black" /> <rect x="268" y="0" width="61" height="102" style="fill:none;stroke:black;stroke-width:5" /><circle cx="314" cy="20" r="6" stroke="black" stroke-width="1" fill="black" /> <circle cx="283" cy="51" r="6" stroke="black" stroke-width="1" fill="black" /> <circle cx="314" cy="51" r="6" stroke="black" stroke-width="1" fill="black" /> <circle cx="283" cy="82" r="6" stroke="black" stroke-width="1" fill="black" /> <rect x="0" y="108" width="61" height="102" style="fill:none;stroke:black;stroke-width:5" /><circle cx="15" cy="128" r="6" stroke="black" stroke-width="1" fill="black" /> <circle cx="46" cy="128" r="6" stroke="black" stroke-width="1" fill="black" /> <circle cx="46" cy="159" r="6" stroke="black" stroke-width="1" fill="black" /> <circle cx="15" cy="190" r="6" stroke="black" stroke-width="1" fill="black" /> <circle cx="46" cy="190" r="6" stroke="black" stroke-width="1" fill="black" /> <rect x="67" y="108" width="61" height="102" style="fill:none;stroke:black;stroke-width:5" /><circle cx="82" cy="128" r="6" stroke="black" stroke-width="1" fill="black" /> <circle cx="82" cy="190" r="6" stroke="black" stroke-width="1" fill="black" /> <circle cx="113" cy="190" r="6" stroke="black" stroke-width="1" fill="black" /> <rect x="134" y="108" width="61" height="102" style="fill:none;stroke:black;stroke-width:5" /><circle cx="149" cy="159" r="6" stroke="black" stroke-width="1" fill="black" /> <circle cx="180" cy="128" r="6" stroke="black" stroke-width="1" fill="black" /> <rect x="201" y="108" width="61" height="102" style="fill:none;stroke:black;stroke-width:5" /><circle cx="216" cy="128" r="6" stroke="black" stroke-width="1" fill="black" /> <circle cx="247" cy="159" r="6" stroke="black" stroke-width="1" fill="black" /> <circle cx="216" cy="190" r="6" stroke="black" stroke-width="1" fill="black" /> <rect x="268" y="108" width="61" height="102" style="fill:none;stroke:black;stroke-width:5" /><circle cx="283" cy="128" r="6" stroke="black" stroke-width="1" fill="black" /> <circle cx="314" cy="128" r="6" stroke="black" stroke-width="1" fill="black" /> <circle cx="283" cy="159" r="6" stroke="black" stroke-width="1" fill="black" /> <circle cx="283" cy="190" r="6" stroke="black" stroke-width="1" fill="black" /> <rect x="0" y="216" width="61" height="102" style="fill:none;stroke:black;stroke-width:5" /><circle cx="15" cy="236" r="6" stroke="black" stroke-width="1" fill="black" /> <rect x="67" y="216" width="61" height="102" style="fill:none;stroke:black;stroke-width:5" /><circle cx="113" cy="236" r="6" stroke="black" stroke-width="1" fill="black" /> <circle cx="82" cy="267" r="6" stroke="black" stroke-width="1" fill="black" /> <circle cx="82" cy="298" r="6" stroke="black" stroke-width="1" fill="black" /> <rect x="134" y="216" width="61" height="102" style="fill:none;stroke:black;stroke-width:5" /><circle cx="149" cy="267" r="6" stroke="black" stroke-width="1" fill="black" /> <circle cx="180" cy="236" r="6" stroke="black" stroke-width="1" fill="black" /> <circle cx="180" cy="267" r="6" stroke="black" stroke-width="1" fill="black" /> <rect x="201" y="216" width="61" height="102" style="fill:none;stroke:black;stroke-width:5" /><circle cx="216" cy="236" r="6" stroke="black" stroke-width="1" fill="black" /> <circle cx="247" cy="236" r="6" stroke="black" stroke-width="1" fill="black" /> <circle cx="216" cy="267" r="6" stroke="black" stroke-width="1" fill="black" /> <rect x="268" y="216" width="61" height="102" style="fill:none;stroke:black;stroke-width:5" /><circle cx="283" cy="236" r="6" stroke="black" stroke-width="1" fill="black" /> <circle cx="314" cy="236" r="6" stroke="black" stroke-width="1" fill="black" /> <circle cx="283" cy="267" r="6" stroke="black" stroke-width="1" fill="black" /> <circle cx="314" cy="267" r="6" stroke="black" stroke-width="1" fill="black" /> <rect x="0" y="324" width="61" height="102" style="fill:none;stroke:black;stroke-width:5" /><circle cx="15" cy="344" r="6" stroke="black" stroke-width="1" fill="black" /> <circle cx="15" cy="375" r="6" stroke="black" stroke-width="1" fill="black" /> <circle cx="46" cy="375" r="6" stroke="black" stroke-width="1" fill="black" /> <rect x="67" y="324" width="61" height="102" style="fill:none;stroke:black;stroke-width:5" /><circle cx="82" cy="375" r="6" stroke="black" stroke-width="1" fill="black" /> <circle cx="113" cy="344" r="6" stroke="black" stroke-width="1" fill="black" /> <circle cx="113" cy="375" r="6" stroke="black" stroke-width="1" fill="black" /> <rect x="134" y="324" width="61" height="102" style="fill:none;stroke:black;stroke-width:5" /><circle cx="149" cy="344" r="6" stroke="black" stroke-width="1" fill="black" /> <circle cx="149" cy="406" r="6" stroke="black" stroke-width="1" fill="black" /> <rect x="201" y="324" width="61" height="102" style="fill:none;stroke:black;stroke-width:5" /><circle cx="216" cy="344" r="6" stroke="black" stroke-width="1" fill="black" /> <circle cx="216" cy="375" r="6" stroke="black" stroke-width="1" fill="black" /> <circle cx="216" cy="406" r="6" stroke="black" stroke-width="1" fill="black" /> <rect x="268" y="324" width="61" height="102" style="fill:none;stroke:black;stroke-width:5" /><circle cx="283" cy="344" r="6" stroke="black" stroke-width="1" fill="black" /> <circle cx="314" cy="375" r="6" stroke="black" stroke-width="1" fill="black" /> <circle cx="283" cy="406" r="6" stroke="black" stroke-width="1" fill="black" /> <circle cx="314" cy="406" r="6" stroke="black" stroke-width="1" fill="black" /> <rect x="0" y="432" width="61" height="102" style="fill:none;stroke:black;stroke-width:5" /><circle cx="15" cy="452" r="6" stroke="black" stroke-width="1" fill="black" /> <circle cx="46" cy="452" r="6" stroke="black" stroke-width="1" fill="black" /> <circle cx="15" cy="514" r="6" stroke="black" stroke-width="1" fill="black" /> <circle cx="46" cy="514" r="6" stroke="black" stroke-width="1" fill="black" /> <rect x="67" y="432" width="61" height="102" style="fill:none;stroke:black;stroke-width:5" /><circle cx="82" cy="452" r="6" stroke="black" stroke-width="1" fill="black" /> <circle cx="113" cy="452" r="6" stroke="black" stroke-width="1" fill="black" /> <rect x="134" y="432" width="61" height="102" style="fill:none;stroke:black;stroke-width:5" /><circle cx="149" cy="452" r="6" stroke="black" stroke-width="1" fill="black" /> <circle cx="149" cy="483" r="6" stroke="black" stroke-width="1" fill="black" /> <circle cx="149" cy="514" r="6" stroke="black" stroke-width="1" fill="black" /> <circle cx="180" cy="514" r="6" stroke="black" stroke-width="1" fill="black" /> <rect x="201" y="432" width="61" height="102" style="fill:none;stroke:black;stroke-width:5" /><circle cx="216" cy="452" r="6" stroke="black" stroke-width="1" fill="black" /> <circle cx="216" cy="483" r="6" stroke="black" stroke-width="1" fill="black" /> <rect x="268" y="432" width="61" height="102" style="fill:none;stroke:black;stroke-width:5" /><circle cx="283" cy="452" r="6" stroke="black" stroke-width="1" fill="black" /> <circle cx="314" cy="452" r="6" stroke="black" stroke-width="1" fill="black" /> <circle cx="314" cy="483" r="6" stroke="black" stroke-width="1" fill="black" /> <circle cx="283" cy="514" r="6" stroke="black" stroke-width="1" fill="black" /> <rect x="0" y="540" width="61" height="102" style="fill:none;stroke:black;stroke-width:5" /><circle cx="15" cy="560" r="6" stroke="black" stroke-width="1" fill="black" /> <circle cx="46" cy="560" r="6" stroke="black" stroke-width="1" fill="black" /> <circle cx="15" cy="622" r="6" stroke="black" stroke-width="1" fill="black" /> <rect x="67" y="540" width="61" height="102" style="fill:none;stroke:black;stroke-width:5" /><rect x="134" y="540" width="61" height="102" style="fill:none;stroke:black;stroke-width:5" /><rect x="201" y="540" width="61" height="102" style="fill:none;stroke:black;stroke-width:5" /><rect x="268" y="540" width="61" height="102" style="fill:none;stroke:black;stroke-width:5" />
  
</svg>